<!DOCTYPE svg PUBLIC "-//W3C//DTD SVG 20010904//EN" "http://www.w3.org/TR/2001/REC-SVG-20010904/DTD/svg10.dtd">
<svg version="1.0" xmlns="http://www.w3.org/2000/svg" width="791px" height="141px" viewBox="0 0 7910 1410" preserveAspectRatio="xMidYMid meet">
<g id="layer101" fill="#afff66" stroke="none">
 <path d="M2565 1231 c-3 -5 -1 -12 5 -16 12 -7 30 2 30 16 0 12 -27 12 -35 0z"/>
 <path d="M4732 1138 c1 -29 1 -81 0 -115 -2 -60 -3 -63 -29 -68 -16 -4 -43 -13 -60 -20 l-33 -15 0 34 c0 40 -8 66 -21 66 -16 0 -10 -134 7 -168 14 -29 14 -34 -3 -62 -14 -25 -15 -34 -5 -50 9 -15 9 -25 1 -44 -9 -19 -9 -32 0 -54 9 -22 10 -44 2 -88 -15 -81 -14 -114 4 -114 18 0 18 -7 4 -48 -7 -21 -7 -37 0 -50 7 -13 7 -22 -1 -30 -9 -9 -7 -17 7 -32 23 -25 31 -25 105 0 55 19 63 19 96 5 20 -8 53 -15 73 -15 20 0 46 -7 58 -15 15 -11 28 -13 40 -7 55 27 76 42 127 89 47 44 56 57 56 86 0 44 8 67 25 67 19 0 21 25 14 140 -4 58 -7 145 -8 193 -1 86 -2 88 -23 85 -19 -3 -23 -8 -21 -38 12 -171 13 -263 4 -250 -6 8 -8 24 -5 36 4 15 -3 28 -25 47 -40 33 -50 82 -51 235 0 102 -2 122 -15 122 -13 0 -15 -22 -15 -138 0 -94 -4 -142 -12 -150 -7 -7 -31 -12 -55 -12 l-43 0 0 53 c0 84 -12 158 -24 154 -7 -2 -10 -33 -7 -92 3 -93 -2 -105 -45 -105 -15 0 -24 8 -28 25 -7 29 -21 32 -35 8 -8 -14 -10 -7 -5 27 3 25 8 51 10 59 2 7 -5 30 -17 50 -18 33 -20 51 -17 144 3 98 1 107 -15 107 -16 0 -18 -8 -15 -52z m227 -562 c22 -22 23 -28 13 -51 -7 -14 -12 -39 -12 -55 0 -25 -4 -30 -24 -30 -23 0 -25 4 -28 50 -2 28 -7 49 -13 48 -5 -2 -8 -24 -7 -50 3 -38 0 -48 -16 -57 -26 -14 -67 0 -81 28 -8 14 -7 27 4 48 8 15 15 37 15 49 0 21 23 48 50 56 24 8 73 -10 99 -36z"/>
 <path d="M6820 1149 c0 -24 23 -21 28 4 2 10 -3 17 -12 17 -10 0 -16 -9 -16 -21z"/>
 <path d="M7660 1149 c0 -24 23 -21 28 4 2 10 -3 17 -12 17 -10 0 -16 -9 -16 -21z"/>
 <path d="M2557 1154 c-12 -13 -8 -435 5 -470 10 -29 9 -36 -7 -54 -18 -20 -18 -22 -1 -51 15 -26 17 -43 11 -112 -4 -45 -12 -88 -18 -95 -7 -9 -6 -25 2 -53 10 -33 20 -44 54 -59 41 -19 42 -19 57 -1 21 26 60 37 71 20 6 -11 14 -11 42 -1 43 16 67 15 91 -3 25 -19 123 -20 167 -1 51 21 185 13 221 -14 33 -24 47 -25 63 -3 7 10 32 19 61 22 43 5 50 9 57 36 5 17 19 51 30 77 15 36 18 56 12 85 -5 21 -9 88 -9 149 -1 83 -5 115 -16 129 -12 14 -15 48 -15 151 0 91 -4 137 -12 145 -20 20 -25 -7 -26 -147 -1 -87 -6 -129 -14 -131 -6 -2 -13 6 -15 18 -5 34 -25 34 -33 0 -4 -17 -10 -31 -15 -31 -11 0 -22 113 -14 144 6 27 -11 60 -27 50 -5 -3 -9 -51 -9 -106 0 -56 -6 -117 -12 -136 -10 -28 -10 -36 0 -39 18 -7 15 -94 -4 -121 -17 -24 -11 -80 10 -95 7 -5 5 -12 -8 -22 -26 -20 -33 -19 -39 5 -7 27 -21 25 -33 -5 -8 -23 -11 -24 -34 -12 -37 19 -48 59 -25 100 16 30 16 40 5 85 -6 29 -9 69 -5 91 7 40 -9 66 -25 41 -6 -10 -15 -8 -39 9 -30 22 -31 24 -31 102 0 61 -3 79 -14 79 -10 0 -16 -21 -21 -74 -6 -67 -10 -77 -41 -107 -33 -32 -35 -37 -29 -77 6 -43 6 -43 -16 -32 -22 12 -22 12 -16 -35 4 -26 7 -54 7 -61 0 -8 7 -14 15 -14 20 0 19 -13 -4 -59 -26 -50 -45 -65 -76 -57 -23 6 -25 11 -25 66 0 47 -3 60 -15 60 -11 0 -15 -11 -15 -41 0 -28 -4 -39 -12 -36 -15 5 -12 186 3 201 15 16 11 31 -21 77 -28 42 -30 49 -30 152 0 99 -1 107 -19 107 -25 0 -36 -17 -22 -34 12 -15 5 -102 -14 -161 -10 -32 -20 -43 -49 -54 -20 -8 -39 -11 -42 -8 -4 3 -2 93 4 199 8 152 8 196 -2 206 -7 7 -15 9 -19 6z"/>
 <path d="M5040 1125 c0 -16 6 -25 15 -25 9 0 15 9 15 25 0 16 -6 25 -15 25 -9 0 -15 -9 -15 -25z"/>
 <path d="M3777 1013 c3 -80 0 -137 -9 -178 -16 -67 -30 -78 -110 -90 l-48 -7 0 41 c0 31 -4 41 -16 41 -13 0 -15 -11 -11 -74 5 -72 4 -75 -25 -103 l-30 -28 4 143 c3 124 1 142 -12 140 -11 -3 -15 -16 -14 -48 1 -25 -2 -110 -7 -189 -7 -137 -2 -186 17 -186 9 0 39 -74 52 -129 6 -23 16 -31 47 -41 22 -6 49 -16 60 -22 21 -12 159 -33 212 -33 23 0 45 11 79 41 25 22 53 38 60 35 23 -9 64 51 64 95 0 22 5 50 12 62 19 36 10 96 -23 155 -30 53 -31 60 -37 216 -6 132 -10 161 -22 161 -12 0 -14 -24 -11 -157 2 -102 -1 -158 -7 -158 -18 0 -70 75 -74 105 -4 42 -21 34 -32 -15 -8 -38 -11 -41 -35 -35 -53 13 -56 22 -56 203 0 145 -2 167 -16 170 -14 3 -16 -11 -12 -115z m69 -391 c38 -33 47 -57 33 -84 -8 -15 -8 -32 1 -64 11 -39 11 -47 -5 -64 -41 -45 -55 -19 -55 107 0 45 -4 84 -8 87 -21 13 -28 -14 -22 -89 7 -86 -1 -125 -24 -125 -24 0 -50 58 -35 76 7 8 9 27 5 45 -6 33 8 105 26 127 17 20 51 13 84 -16z"/>
 <path d="M4200 1095 c0 -39 14 -46 30 -14 14 25 6 49 -15 49 -11 0 -15 -10 -15 -35z"/>
 <path d="M6137 1013 c3 -80 0 -137 -9 -178 -16 -67 -30 -78 -110 -90 l-48 -7 0 41 c0 31 -4 41 -16 41 -13 0 -15 -11 -11 -74 5 -72 4 -75 -25 -103 l-30 -28 4 143 c3 124 1 142 -12 140 -11 -3 -15 -16 -14 -48 1 -25 -2 -110 -7 -189 -7 -137 -2 -186 17 -186 9 0 39 -74 52 -129 6 -23 16 -31 47 -41 22 -6 49 -16 60 -22 21 -12 159 -33 212 -33 23 0 45 11 79 41 25 22 53 38 60 35 23 -9 64 51 64 95 0 22 5 50 12 62 19 36 10 96 -23 155 -30 53 -31 60 -37 216 -6 132 -10 161 -22 161 -12 0 -14 -24 -11 -157 2 -102 -1 -158 -7 -158 -18 0 -70 75 -74 105 -4 42 -21 34 -32 -15 -8 -38 -11 -41 -35 -35 -53 13 -56 22 -56 203 0 145 -2 167 -16 170 -14 3 -16 -11 -12 -115z m69 -391 c38 -33 47 -57 33 -84 -8 -15 -8 -32 1 -64 11 -39 11 -47 -5 -64 -41 -45 -55 -19 -55 107 0 45 -4 84 -8 87 -21 13 -28 -14 -22 -89 7 -86 -1 -125 -24 -125 -24 0 -50 58 -35 76 7 8 9 27 5 45 -6 33 8 105 26 127 17 20 51 13 84 -16z"/>
 <path d="M3510 1069 c0 -52 24 -48 28 4 2 28 -1 37 -12 37 -12 0 -16 -11 -16 -41z"/>
 <path d="M5870 1069 c0 -52 24 -48 28 4 2 28 -1 37 -12 37 -12 0 -16 -11 -16 -41z"/>
 <path d="M380 1075 c0 -8 7 -15 15 -15 8 0 15 7 15 15 0 8 -7 15 -15 15 -8 0 -15 -7 -15 -15z"/>
 <path d="M1574 1066 c-4 -10 -2 -22 4 -28 8 -8 13 -7 18 6 4 10 2 22 -4 28 -8 8 -13 7 -18 -6z"/>
 <path d="M1860 920 l0 -160 -28 0 c-47 0 -62 26 -62 109 0 54 -3 72 -12 68 -9 -2 -13 -25 -13 -63 0 -32 -4 -64 -8 -71 -4 -6 -28 -25 -54 -43 -26 -17 -53 -41 -60 -53 -10 -19 -12 -6 -13 81 0 92 -2 103 -17 100 -15 -3 -17 -19 -14 -158 1 -85 7 -159 12 -164 12 -13 12 -53 -1 -61 -5 -3 -10 -28 -10 -54 0 -47 -1 -48 -40 -64 l-40 -15 0 164 c0 90 -4 164 -9 164 -5 0 -11 -6 -13 -12 -3 -10 -2 -322 1 -359 1 -3 17 -14 37 -25 37 -20 64 -66 64 -110 0 -14 6 -24 15 -24 8 0 19 -16 25 -39 16 -61 47 -66 126 -19 l53 32 3 61 3 60 39 5 c27 4 45 13 60 33 18 25 19 32 8 72 -7 25 -12 75 -12 111 0 57 -2 65 -17 62 -16 -3 -18 -14 -14 -96 2 -62 -1 -92 -8 -92 -20 0 -51 39 -51 64 0 13 -7 29 -15 36 -12 10 -13 17 -1 44 11 27 11 37 0 57 -18 33 -17 37 8 41 13 2 28 15 35 29 8 17 24 29 43 33 41 8 47 29 25 88 -14 40 -17 73 -13 188 3 129 2 140 -14 140 -16 0 -18 -14 -18 -160z"/>
 <path d="M2490 1045 c0 -8 7 -15 15 -15 8 0 15 7 15 15 0 8 -7 15 -15 15 -8 0 -15 -7 -15 -15z"/>
 <path d="M6826 1042 c-2 -4 -1 -59 4 -122 4 -63 4 -119 0 -124 -5 -4 -29 -11 -54 -13 l-46 -6 0 45 c0 26 -6 50 -13 57 -21 17 -27 3 -20 -44 5 -40 4 -43 -22 -49 -15 -4 -35 -4 -45 -1 -13 4 -20 0 -25 -15 -4 -11 -24 -29 -46 -40 l-39 -20 0 45 c0 33 -4 45 -15 45 -12 0 -15 -15 -15 -73 l0 -74 43 -14 c23 -7 48 -13 55 -12 18 1 16 -81 -4 -98 -8 -7 -22 -26 -31 -43 l-16 -31 -10 25 c-10 25 -10 24 -19 -12 -8 -30 -7 -41 6 -53 9 -9 16 -20 16 -25 0 -5 25 -35 56 -66 l56 -57 141 -2 142 -2 49 48 c38 37 47 51 41 66 -13 29 -33 137 -28 150 3 7 16 13 30 13 23 0 24 2 18 43 -3 23 -7 108 -8 189 -1 80 -5 149 -9 153 -4 4 -12 4 -19 0 -8 -6 -10 -32 -5 -94 8 -111 3 -118 -62 -97 -65 22 -72 42 -72 197 0 97 -3 119 -14 119 -8 0 -17 -3 -20 -8z m-9 -383 c21 -21 1 -47 -50 -69 -29 -12 -60 -31 -70 -42 -11 -10 -29 -18 -40 -16 -19 3 -22 9 -22 53 l0 50 60 17 c72 20 107 22 122 7z m149 -223 c-7 -42 -10 -45 -50 -59 -27 -9 -49 -11 -57 -6 -8 5 -40 9 -71 9 -32 0 -58 3 -58 8 0 4 13 22 28 40 26 32 32 34 100 37 40 3 80 9 90 14 23 13 25 8 18 -43z"/>
 <path d="M7666 1042 c-2 -4 -1 -59 4 -122 4 -63 4 -119 0 -124 -5 -4 -29 -11 -54 -13 l-46 -6 0 45 c0 26 -6 50 -13 57 -21 17 -27 3 -20 -44 5 -40 4 -43 -22 -49 -15 -4 -35 -4 -45 -1 -13 4 -20 0 -25 -15 -4 -11 -24 -29 -46 -40 l-39 -20 0 45 c0 33 -4 45 -15 45 -12 0 -15 -15 -15 -73 l0 -74 43 -14 c23 -7 48 -13 55 -12 18 1 16 -81 -4 -98 -8 -7 -22 -26 -31 -43 l-16 -31 -10 25 c-10 25 -10 24 -19 -12 -8 -30 -7 -41 6 -53 9 -9 16 -20 16 -25 0 -5 25 -35 56 -66 l56 -57 141 -2 142 -2 49 48 c38 37 47 51 41 66 -13 29 -33 137 -28 150 3 7 16 13 30 13 23 0 24 2 18 43 -3 23 -7 108 -8 189 -1 80 -5 149 -9 153 -4 4 -12 4 -19 0 -8 -6 -10 -32 -5 -94 8 -111 3 -118 -62 -97 -65 22 -72 42 -72 197 0 97 -3 119 -14 119 -8 0 -17 -3 -20 -8z m-9 -383 c21 -21 1 -47 -50 -69 -29 -12 -60 -31 -70 -42 -11 -10 -29 -18 -40 -16 -19 3 -22 9 -22 53 l0 50 60 17 c72 20 107 22 122 7z m149 -223 c-7 -42 -10 -45 -50 -59 -27 -9 -49 -11 -57 -6 -8 5 -40 9 -71 9 -32 0 -58 3 -58 8 0 4 13 22 28 40 26 32 32 34 100 37 40 3 80 9 90 14 23 13 25 8 18 -43z"/>
 <path d="M2108 943 c-1 -54 -2 -108 -2 -120 0 -14 -16 -31 -49 -53 -27 -18 -56 -41 -65 -51 -16 -19 -17 -16 -22 56 -9 129 -25 92 -27 -61 l-3 -141 28 -24 c15 -14 53 -33 85 -43 48 -14 57 -21 57 -41 0 -34 -10 -55 -27 -55 -22 0 -103 -39 -103 -50 0 -6 10 -14 23 -19 13 -5 36 -20 53 -34 52 -44 94 -56 186 -51 45 2 104 5 130 7 43 2 51 6 87 50 22 26 43 57 46 67 4 11 11 20 16 20 13 0 11 107 -2 116 -8 5 -9 30 -4 83 9 95 14 312 8 329 -3 6 -11 12 -18 12 -10 0 -11 -22 -7 -92 5 -84 4 -91 -12 -85 -10 4 -33 7 -52 7 -30 0 -34 3 -34 25 0 29 -18 34 -26 8 -20 -64 -34 -83 -63 -83 -37 0 -41 14 -41 153 0 82 -3 108 -12 105 -9 -3 -14 -37 -16 -111 -3 -119 -6 -123 -69 -92 -26 13 -31 23 -36 63 -4 26 -4 82 -1 125 4 65 2 77 -11 77 -12 0 -15 -17 -17 -97z m165 -301 c15 -15 27 -35 27 -43 -1 -25 -27 -49 -54 -49 -23 0 -26 4 -26 35 0 19 -4 35 -10 35 -5 0 -10 -10 -10 -22 l0 -23 -20 25 c-27 34 -25 47 8 58 43 16 57 14 85 -16z m-53 -187 c48 8 96 -8 103 -35 4 -16 -4 -21 -45 -29 -65 -15 -113 -14 -125 2 -6 6 -13 29 -17 50 l-7 38 25 -16 c19 -13 36 -15 66 -10z"/>
 <path d="M4209 1033 c-1 -5 -1 -61 1 -126 1 -74 -2 -128 -10 -147 -15 -35 -40 -48 -40 -20 0 11 -7 20 -15 20 -20 0 -21 -102 -2 -118 16 -13 14 -150 -3 -230 l-11 -53 47 -54 c52 -62 70 -66 118 -30 35 26 61 32 71 15 3 -5 21 -10 40 -10 19 0 37 -4 40 -10 3 -5 26 -10 50 -10 55 0 80 27 63 69 -7 14 -13 101 -14 196 -2 132 -6 170 -16 170 -10 0 -13 -29 -14 -125 -1 -152 0 -150 -19 -150 -10 0 -15 10 -15 30 0 35 -27 42 -32 8 -3 -24 -28 -38 -28 -15 0 8 -7 20 -16 28 -9 7 -25 32 -36 56 -19 41 -20 45 -4 62 21 23 19 88 -3 83 -10 -2 -12 7 -7 40 3 24 9 108 12 186 l7 144 -24 -4 c-23 -3 -23 -3 -21 -138 2 -74 -1 -141 -6 -148 -7 -10 -16 -10 -48 0 l-39 13 -3 138 c-1 80 -7 137 -12 137 -6 0 -11 -3 -11 -7z"/>
 <path d="M5144 1026 c-7 -19 14 -58 29 -53 17 5 21 35 7 52 -16 19 -29 19 -36 1z"/>
 <path d="M3007 1023 c-9 -9 -9 -43 1 -43 18 1 34 19 29 34 -7 17 -19 21 -30 9z"/>
 <path d="M912 911 c0 -60 -3 -143 -7 -184 -5 -50 -3 -81 5 -96 9 -18 7 -32 -11 -76 -21 -51 -21 -55 -6 -94 10 -25 13 -42 7 -46 -15 -9 20 -65 47 -78 13 -5 25 -18 28 -29 4 -10 12 -19 18 -19 7 -1 30 -3 53 -4 22 -2 56 -13 75 -24 43 -26 89 -27 131 -1 18 11 45 20 59 20 26 0 51 22 82 73 10 15 24 27 32 27 18 0 24 23 24 85 -3 295 -4 320 -19 320 -11 0 -15 -10 -14 -32 2 -32 2 -32 -22 -15 -13 9 -24 23 -24 30 0 21 -28 25 -46 8 -18 -19 -54 -13 -67 11 -5 8 -16 11 -27 8 -39 -12 -59 11 -62 72 -2 34 -8 58 -15 61 -10 3 -13 -14 -13 -60 0 -72 -10 -91 -57 -106 -35 -12 -43 -3 -43 49 0 19 -5 29 -15 29 -10 0 -16 -15 -21 -47 -5 -42 -10 -50 -41 -66 l-35 -18 5 43 c4 24 7 92 9 153 3 96 1 110 -14 113 -15 3 -17 -9 -16 -107z m502 -293 c-3 -40 -8 -76 -10 -79 -9 -15 -56 5 -65 28 -7 18 -13 22 -22 15 -6 -5 -34 -12 -62 -15 -27 -3 -63 -8 -80 -12 -26 -5 -34 -1 -58 30 -32 41 -30 50 15 60 43 9 67 8 167 -4 90 -11 111 -6 111 30 0 11 3 19 6 19 3 0 2 -33 -2 -72z m-224 -184 c-8 -55 -11 -57 -44 -44 -41 15 -44 38 -7 71 44 38 60 30 51 -27z m62 -14 c2 -19 -2 -25 -17 -25 -17 0 -20 7 -21 43 -1 42 -1 43 17 25 10 -10 20 -29 21 -43z"/>
 <path d="M6690 995 c0 -16 6 -25 15 -25 9 0 15 9 15 25 0 16 -6 25 -15 25 -9 0 -15 -9 -15 -25z"/>
 <path d="M7530 995 c0 -16 6 -25 15 -25 9 0 15 9 15 25 0 16 -6 25 -15 25 -9 0 -15 -9 -15 -25z"/>
 <path d="M5275 1000 c-3 -5 -2 -18 3 -27 11 -21 -1 -187 -18 -253 -19 -71 -23 -131 -11 -143 6 -6 10 -22 10 -36 -1 -17 -3 -20 -6 -8 -2 9 -9 17 -14 17 -14 0 -11 -58 8 -118 16 -49 16 -56 2 -81 -10 -17 -13 -34 -8 -46 4 -11 5 -49 3 -85 -4 -53 -2 -71 14 -95 18 -29 22 -30 87 -30 61 1 68 3 81 25 7 14 13 35 14 47 0 22 36 93 54 105 5 3 17 1 26 -4 12 -8 43 -7 106 1 49 6 100 12 114 14 16 1 26 9 28 22 10 58 25 95 47 119 28 30 34 83 10 92 -8 4 -15 13 -15 20 0 8 7 17 15 20 12 5 15 28 15 118 0 61 -3 141 -7 179 -5 62 -8 67 -29 67 -20 0 -24 -5 -24 -34 0 -18 5 -47 11 -64 14 -39 -5 -62 -50 -62 l-30 0 -3 97 c-3 86 -5 98 -21 101 -18 4 -18 -3 -12 -97 l8 -100 -33 -42 c-44 -54 -56 -156 -25 -203 16 -23 12 -76 -5 -76 -9 0 -20 36 -20 68 0 42 -18 22 -25 -28 -5 -39 -11 -50 -25 -50 -24 0 -31 21 -36 114 -4 84 -6 92 -23 82 -7 -5 -8 -33 -4 -80 3 -41 3 -86 -1 -101 -6 -25 -9 -27 -22 -13 -13 13 -14 22 -4 57 9 33 8 46 -1 57 -15 18 -23 154 -9 154 6 0 10 34 10 80 0 64 -3 80 -15 80 -12 0 -15 -13 -15 -56 0 -47 -3 -55 -16 -50 -9 3 -36 6 -60 6 l-44 0 0 125 c0 102 -3 125 -14 125 -8 0 -18 -4 -21 -10z"/>
 <path d="M126 988 c-3 -7 -7 -52 -9 -100 -5 -98 -27 -148 -67 -158 -21 -5 -25 -11 -22 -41 3 -36 4 -81 3 -201 -1 -40 2 -92 5 -114 4 -26 2 -44 -5 -48 -13 -8 -14 -65 -2 -85 5 -7 4 -25 -2 -42 -10 -24 -8 -32 10 -51 12 -13 23 -34 25 -47 3 -22 7 -23 96 -27 l92 -4 49 52 c47 50 50 57 56 118 10 100 15 119 38 135 54 38 113 2 101 -62 -5 -26 0 -43 26 -83 26 -41 31 -56 26 -84 -8 -42 -3 -46 89 -62 116 -21 150 -19 171 14 29 44 39 121 28 220 -4 35 -2 52 5 52 15 0 14 42 -1 75 -10 21 -9 31 5 55 19 31 21 89 11 238 -5 67 -11 92 -20 92 -10 0 -14 -14 -14 -45 l0 -46 -30 16 c-16 8 -36 15 -44 15 -29 0 -46 42 -46 112 0 39 -4 68 -10 68 -6 0 -10 -39 -10 -97 0 -81 -4 -103 -20 -128 -14 -21 -20 -25 -20 -12 0 9 -7 17 -15 17 -11 0 -15 -12 -15 -49 0 -41 4 -51 20 -56 22 -7 25 -26 10 -55 -15 -27 -64 -12 -68 21 -6 45 -14 56 -22 29 -7 -22 -8 -20 -9 13 -1 47 -50 112 -97 129 l-33 12 -3 98 c-4 126 -22 130 -25 6 -2 -79 -29 -218 -32 -165 -1 10 -7 17 -13 15 -9 -3 -14 -31 -16 -82 -3 -71 -5 -78 -27 -88 -19 -8 -31 -8 -50 0 -29 13 -30 22 -10 80 11 31 14 62 9 108 -8 73 -24 86 -24 19 0 -43 -1 -45 -21 -35 -36 20 -51 75 -48 174 3 65 1 90 -8 93 -7 3 -15 -1 -17 -9z"/>
 <path d="M1740 975 c0 -20 4 -26 18 -23 9 2 17 12 17 23 0 11 -8 21 -17 23 -14 3 -18 -3 -18 -23z"/>
 <path d="M7285 990 c-3 -5 -3 -15 0 -21 4 -5 4 -56 0 -112 l-7 -103 -34 4 -33 4 -3 62 c-2 46 -7 61 -18 61 -11 0 -16 -16 -20 -61 -5 -54 -9 -64 -42 -93 l-37 -32 -3 28 c-6 52 -23 28 -26 -35 -2 -49 2 -73 17 -103 25 -47 26 -62 6 -79 -17 -14 -21 -115 -6 -125 5 -3 12 -18 16 -34 3 -16 13 -35 22 -42 8 -7 19 -23 24 -36 5 -13 16 -23 24 -23 12 0 15 -8 13 -27 -2 -19 -16 -36 -45 -56 -36 -24 -43 -34 -43 -61 0 -43 16 -56 70 -56 56 0 88 28 97 83 4 29 1 40 -15 54 -35 31 -35 56 1 78 20 13 33 30 35 45 4 43 21 173 28 216 4 29 1 51 -10 72 -20 39 -21 91 -2 106 11 8 17 48 22 154 6 126 5 142 -9 142 -9 0 -19 -4 -22 -10z"/>
 <path d="M1574 959 c-3 -6 -1 -16 5 -22 9 -9 14 -8 21 3 9 15 4 30 -10 30 -5 0 -12 -5 -16 -11z"/>
 <path d="M822 934 c2 -11 11 -20 22 -22 13 -3 17 1 14 14 -2 11 -11 20 -22 22 -13 3 -17 -1 -14 -14z"/>
 <path d="M3900 904 c0 -9 5 -14 12 -12 18 6 21 28 4 28 -9 0 -16 -7 -16 -16z"/>
 <path d="M6260 904 c0 -17 22 -14 28 4 2 7 -3 12 -12 12 -9 0 -16 -7 -16 -16z"/>
 <path d="M1422 887 c-14 -17 -4 -57 14 -57 9 0 14 11 14 29 0 34 -13 47 -28 28z"/>
 <path d="M3110 860 c0 -19 11 -26 23 -14 8 8 -3 34 -14 34 -5 0 -9 -9 -9 -20z"/>
 <path d="M7060 839 c0 -24 23 -21 28 4 2 10 -3 17 -12 17 -10 0 -16 -9 -16 -21z"/>
 <path d="M5484 755 c-7 -18 3 -35 22 -35 15 0 17 9 8 34 -8 20 -23 21 -30 1z"/>
 </g>

<script xmlns=""/></svg>