<svg width="302.197" height="81.787" viewBox="0 0 302.197 81.787" xmlns="http://www.w3.org/2000/svg"><g id="svgGroup" stroke-linecap="round" fill-rule="evenodd" font-size="9pt" stroke="#ffffff" stroke-width="0.25mm" fill="#ffffff" style="stroke:#ffffff;stroke-width:0.25mm;fill:#ffffff"><path d="M 0.098 67.285 L 0.098 63.916 L 0.098 20.508 L 0.195 16.309 L 0.293 10.889 L 0.147 7.764 L 0 4.785 Q 0 2.588 1.001 1.782 Q 1.998 0.98 5.055 0.977 A 23.965 23.965 0 0 1 5.078 0.977 L 14.356 0.977 Q 16.992 0.977 18.156 2.06 A 2.747 2.747 0 0 1 18.359 2.271 A 4.742 4.742 0 0 1 18.939 3.139 Q 19.461 4.113 19.924 5.712 A 30.725 30.725 0 0 1 20.361 7.422 L 25.195 28.613 L 26.367 28.613 L 32.178 4.688 A 11.071 11.071 0 0 1 32.507 3.652 Q 32.913 2.576 33.459 1.971 A 2.99 2.99 0 0 1 33.594 1.831 A 2.863 2.863 0 0 1 34.835 1.134 Q 35.392 0.977 36.084 0.977 L 47.07 0.977 Q 48.374 0.977 49.221 1.339 A 2.498 2.498 0 0 1 50.317 2.197 Q 51.172 3.418 51.172 7.422 L 50.977 15.674 L 50.781 27.393 L 50.879 39.844 L 50.977 57.91 A 68.344 68.344 0 0 0 50.983 58.76 Q 50.999 60.058 51.059 62.202 A 489.271 489.271 0 0 0 51.074 62.72 Q 51.172 66.065 51.172 66.309 L 51.172 67.188 A 27.93 27.93 0 0 1 51.136 68.668 Q 51.021 70.823 50.541 71.748 A 2.352 2.352 0 0 1 50.513 71.802 A 2.187 2.187 0 0 1 49.087 72.881 Q 48.687 72.987 48.198 72.997 A 5.026 5.026 0 0 1 48.096 72.998 L 39.063 72.998 A 5.2 5.2 0 0 1 38.055 72.907 Q 37.487 72.795 37.059 72.544 A 2.385 2.385 0 0 1 36.304 71.851 Q 35.653 70.924 35.528 68.866 A 17.239 17.239 0 0 1 35.498 67.822 L 35.498 48.584 L 35.352 41.162 L 35.059 34.815 L 33.594 34.815 A 206.725 206.725 0 0 1 32.582 39.473 Q 31.085 45.978 29.712 49.585 Q 28.197 53.565 26.698 54.252 A 1.487 1.487 0 0 1 26.074 54.395 Q 23.952 54.395 18.959 40.533 A 275.567 275.567 0 0 1 17.139 35.303 L 16.992 34.815 L 15.772 34.815 L 15.772 38.818 L 15.772 43.018 L 15.772 64.014 L 15.674 66.65 L 15.576 69.58 Q 15.576 71.205 15.111 71.961 A 1.396 1.396 0 0 1 14.649 72.437 A 2.367 2.367 0 0 1 14.077 72.669 Q 13.115 72.943 11.143 72.989 A 36.002 36.002 0 0 1 10.303 72.998 L 3.76 72.998 Q 1.904 72.998 1.001 71.582 Q 0.098 70.166 0.098 67.285 Z M 78.272 69.287 L 77.588 69.287 A 6.639 6.639 0 0 1 74.805 72.754 A 8.056 8.056 0 0 1 72.468 73.63 Q 71.466 73.846 70.308 73.873 A 14.365 14.365 0 0 1 69.971 73.877 A 10.354 10.354 0 0 1 61.869 70.079 A 15.976 15.976 0 0 1 60.523 68.286 A 20.735 20.735 0 0 1 57.912 62.256 Q 56.885 58.392 56.885 53.516 Q 56.885 46.337 59.077 41.268 A 19.706 19.706 0 0 1 60.742 38.184 A 15.592 15.592 0 0 1 62.795 35.698 A 12.186 12.186 0 0 1 65.161 33.887 Q 67.676 32.422 70.801 32.422 A 9.835 9.835 0 0 1 72.295 32.543 Q 73.052 32.66 73.886 32.888 A 18.203 18.203 0 0 1 74.463 33.057 L 77.1 33.691 A 2.053 2.053 0 0 0 77.48 33.659 Q 77.69 33.619 77.849 33.532 A 0.879 0.879 0 0 0 78.174 33.228 A 1.525 1.525 0 0 0 78.338 32.858 Q 78.449 32.495 78.464 31.965 A 6.045 6.045 0 0 0 78.467 31.787 A 4.561 4.561 0 0 0 78.131 30.011 A 4.282 4.282 0 0 0 76.831 28.32 Q 75.363 27.137 72.971 27.016 A 11.032 11.032 0 0 0 72.412 27.002 Q 69.922 27.002 66.992 27.905 Q 64.063 28.809 63.477 28.809 A 3.023 3.023 0 0 1 62.67 28.707 A 2.21 2.21 0 0 1 61.621 28.076 Q 61.165 27.413 61.096 26.012 A 10.659 10.659 0 0 1 61.084 25.488 L 61.084 20.508 A 16.895 16.895 0 0 1 61.1 19.736 Q 61.154 18.563 61.386 18.05 A 1.298 1.298 0 0 1 61.426 17.969 A 1.995 1.995 0 0 1 61.856 17.434 Q 62.188 17.135 62.695 16.895 A 13.51 13.51 0 0 1 63.996 16.415 Q 65.329 15.991 67.222 15.61 A 55.605 55.605 0 0 1 68.433 15.381 A 44.54 44.54 0 0 1 73.062 14.793 A 36.648 36.648 0 0 1 75.684 14.697 Q 84.912 14.697 88.648 17.969 A 9.316 9.316 0 0 1 91.066 21.449 Q 92.383 24.593 92.383 29.492 L 92.383 33.984 L 92.383 67.822 L 92.432 68.848 L 92.481 69.678 A 11.342 11.342 0 0 1 92.451 70.525 Q 92.351 71.855 91.908 72.348 A 1.039 1.039 0 0 1 91.87 72.388 Q 91.26 72.998 87.988 72.998 L 81.104 72.998 A 12.213 12.213 0 0 1 80.373 72.978 Q 79.061 72.899 78.711 72.51 A 1.098 1.098 0 0 1 78.612 72.318 Q 78.526 72.106 78.457 71.77 A 7.078 7.078 0 0 1 78.394 71.411 Q 78.274 70.623 78.272 69.345 A 28.073 28.073 0 0 1 78.272 69.287 Z M 287.988 69.287 L 287.305 69.287 A 6.639 6.639 0 0 1 284.522 72.754 A 8.056 8.056 0 0 1 282.185 73.63 Q 281.183 73.846 280.025 73.873 A 14.365 14.365 0 0 1 279.688 73.877 A 10.354 10.354 0 0 1 271.585 70.079 A 15.976 15.976 0 0 1 270.239 68.286 A 20.735 20.735 0 0 1 267.628 62.256 Q 266.602 58.392 266.602 53.516 Q 266.602 46.337 268.794 41.268 A 19.706 19.706 0 0 1 270.459 38.184 A 15.592 15.592 0 0 1 272.512 35.698 A 12.186 12.186 0 0 1 274.878 33.887 Q 277.393 32.422 280.518 32.422 A 9.835 9.835 0 0 1 282.012 32.543 Q 282.769 32.66 283.603 32.888 A 18.203 18.203 0 0 1 284.18 33.057 L 286.817 33.691 A 2.053 2.053 0 0 0 287.197 33.659 Q 287.406 33.619 287.565 33.532 A 0.879 0.879 0 0 0 287.891 33.228 A 1.525 1.525 0 0 0 288.055 32.858 Q 288.166 32.495 288.181 31.965 A 6.045 6.045 0 0 0 288.184 31.787 A 4.561 4.561 0 0 0 287.848 30.011 A 4.282 4.282 0 0 0 286.548 28.32 Q 285.08 27.137 282.688 27.016 A 11.032 11.032 0 0 0 282.129 27.002 Q 279.639 27.002 276.709 27.905 Q 273.779 28.809 273.193 28.809 A 3.023 3.023 0 0 1 272.387 28.707 A 2.21 2.21 0 0 1 271.338 28.076 Q 270.882 27.413 270.813 26.012 A 10.659 10.659 0 0 1 270.801 25.488 L 270.801 20.508 A 16.895 16.895 0 0 1 270.817 19.736 Q 270.871 18.563 271.103 18.05 A 1.298 1.298 0 0 1 271.143 17.969 A 1.995 1.995 0 0 1 271.573 17.434 Q 271.905 17.135 272.412 16.895 A 13.51 13.51 0 0 1 273.713 16.415 Q 275.046 15.991 276.939 15.61 A 55.605 55.605 0 0 1 278.15 15.381 A 44.54 44.54 0 0 1 282.779 14.793 A 36.648 36.648 0 0 1 285.4 14.697 Q 294.629 14.697 298.364 17.969 A 9.316 9.316 0 0 1 300.783 21.449 Q 302.1 24.593 302.1 29.492 L 302.1 33.984 L 302.1 67.822 L 302.149 68.848 L 302.197 69.678 A 11.342 11.342 0 0 1 302.168 70.525 Q 302.068 71.855 301.625 72.348 A 1.039 1.039 0 0 1 301.587 72.388 Q 300.977 72.998 297.705 72.998 L 290.82 72.998 A 12.213 12.213 0 0 1 290.089 72.978 Q 288.778 72.899 288.428 72.51 A 1.098 1.098 0 0 1 288.329 72.318 Q 288.242 72.106 288.174 71.77 A 7.078 7.078 0 0 1 288.11 71.411 Q 287.991 70.623 287.988 69.345 A 28.073 28.073 0 0 1 287.988 69.287 Z M 151.318 77.1 L 151.318 21.484 L 151.27 20.606 L 151.221 19.19 A 8.179 8.179 0 0 1 151.274 18.218 Q 151.395 17.209 151.793 16.645 A 1.735 1.735 0 0 1 152.1 16.309 A 2.229 2.229 0 0 1 152.733 15.955 Q 153.72 15.576 155.615 15.576 L 161.621 15.576 A 11.018 11.018 0 0 1 162.489 15.608 Q 163.871 15.717 164.378 16.209 A 1.104 1.104 0 0 1 164.404 16.235 A 1.865 1.865 0 0 1 164.718 16.701 Q 165.099 17.468 165.313 19.041 A 18.954 18.954 0 0 1 165.332 19.19 A 16.668 16.668 0 0 1 167.087 17.547 Q 168.1 16.734 169.137 16.209 A 9.903 9.903 0 0 1 169.434 16.065 Q 170.459 15.576 171.558 15.332 A 9.939 9.939 0 0 1 172.801 15.142 A 13.332 13.332 0 0 1 174.024 15.088 A 9.792 9.792 0 0 1 179.3 16.5 Q 181.183 17.67 182.567 19.809 A 16.02 16.02 0 0 1 183.74 21.997 A 25.979 25.979 0 0 1 185.227 26.577 Q 186.413 31.604 186.714 39.151 A 136.489 136.489 0 0 1 186.817 44.58 Q 186.817 57.071 184.591 63.957 A 22.267 22.267 0 0 1 183.569 66.577 A 14.144 14.144 0 0 1 181.239 70.146 Q 178.234 73.428 173.462 73.485 A 14.173 14.173 0 0 1 173.291 73.486 Q 171.045 73.486 169.19 72.827 Q 167.334 72.168 165.918 70.899 L 165.918 76.709 A 23.954 23.954 0 0 1 165.885 78.024 Q 165.777 79.968 165.323 80.733 A 1.31 1.31 0 0 1 165.112 81.006 Q 164.307 81.787 161.719 81.787 L 155.42 81.787 A 22.007 22.007 0 0 1 154.302 81.761 Q 152.723 81.68 152.082 81.35 A 1.171 1.171 0 0 1 151.856 81.201 Q 151.318 80.566 151.318 77.1 Z M 233.399 70.02 L 233.399 69.287 L 233.203 62.793 L 233.203 61.279 A 16.107 16.107 0 0 1 233.24 60.15 Q 233.317 59.057 233.557 58.37 A 2.752 2.752 0 0 1 233.789 57.861 A 1.92 1.92 0 0 1 235.06 56.962 A 3.231 3.231 0 0 1 235.791 56.885 L 238.135 57.471 A 18.577 18.577 0 0 0 239.787 57.828 Q 240.865 58.008 241.797 58.008 A 11.657 11.657 0 0 0 242.972 57.953 Q 244.592 57.788 245.361 57.129 A 2.735 2.735 0 0 0 246.176 55.876 Q 246.387 55.235 246.387 54.395 Q 246.387 51.904 242.383 48.486 L 240.527 46.777 Q 236.865 43.359 235.083 39.551 A 19.135 19.135 0 0 1 233.329 32.325 A 22.471 22.471 0 0 1 233.301 31.201 A 20.688 20.688 0 0 1 233.926 25.98 A 14.991 14.991 0 0 1 237.744 19.141 A 14.907 14.907 0 0 1 247.05 14.722 A 20.472 20.472 0 0 1 249.317 14.6 Q 255.034 14.6 257.248 15.304 A 3.886 3.886 0 0 1 258.057 15.649 Q 259.815 16.699 259.815 19.629 L 259.912 25.391 A 8.638 8.638 0 0 1 259.84 26.55 Q 259.762 27.121 259.602 27.589 A 3.493 3.493 0 0 1 259.131 28.516 A 2.502 2.502 0 0 1 257.641 29.485 A 4.041 4.041 0 0 1 256.69 29.59 A 2.598 2.598 0 0 1 256.574 29.587 Q 256.394 29.579 256.081 29.549 A 23.028 23.028 0 0 1 256.006 29.541 A 7.136 7.136 0 0 1 255.551 29.48 Q 255.318 29.441 255.059 29.385 A 12.927 12.927 0 0 1 254.883 29.346 L 252.686 29.102 A 4.667 4.667 0 0 0 251.566 29.229 A 3.278 3.278 0 0 0 250.098 30.005 A 2.992 2.992 0 0 0 249.156 31.876 A 4.208 4.208 0 0 0 249.121 32.422 A 2.373 2.373 0 0 0 249.33 33.306 Q 250.014 34.96 252.93 37.988 L 255.908 41.211 A 28.623 28.623 0 0 1 258.549 44.534 A 21.272 21.272 0 0 1 260.62 48.364 Q 262.109 52.002 262.109 56.006 A 24.598 24.598 0 0 1 261.553 61.402 Q 260.49 66.13 257.398 69.238 A 15.428 15.428 0 0 1 250.14 73.281 Q 247.695 73.91 244.795 73.969 A 29.761 29.761 0 0 1 244.19 73.975 A 53.65 53.65 0 0 1 241.535 73.914 Q 238.949 73.785 237.257 73.385 A 9.461 9.461 0 0 1 235.986 72.998 Q 234.526 72.502 233.89 71.618 A 2.665 2.665 0 0 1 233.399 70.02 Z M 111.084 72.998 L 103.076 72.998 A 7.037 7.037 0 0 1 102.035 72.927 Q 100.785 72.739 100.17 72.057 A 2.09 2.09 0 0 1 100.098 71.973 A 2.939 2.939 0 0 1 99.787 71.263 Q 99.431 70.109 99.415 67.886 A 29.399 29.399 0 0 1 99.414 67.676 L 99.414 27.295 L 99.317 24.902 L 99.219 21.484 Q 99.219 17.823 100.253 16.669 A 1.853 1.853 0 0 1 100.366 16.553 Q 101.478 15.512 105.181 15.48 A 27.491 27.491 0 0 1 105.42 15.479 L 110.303 15.479 Q 113.306 15.479 113.467 20.33 A 17.059 17.059 0 0 1 113.477 20.899 L 113.477 21.387 L 114.209 21.484 Q 114.949 19.005 115.969 17.312 A 10.687 10.687 0 0 1 116.65 16.309 A 8.292 8.292 0 0 1 117.377 15.476 Q 118.246 14.613 119.08 14.445 A 2.03 2.03 0 0 1 119.483 14.404 A 3.599 3.599 0 0 1 120.424 14.52 A 2.365 2.365 0 0 1 121.875 15.601 A 3.423 3.423 0 0 1 122.213 16.386 Q 122.478 17.255 122.565 18.64 A 23.661 23.661 0 0 1 122.608 20.117 L 122.608 30.811 A 7.808 7.808 0 0 1 122.491 32.223 Q 122.355 32.955 122.064 33.49 A 2.644 2.644 0 0 1 120.166 34.863 L 119.873 34.912 Q 118.017 35.205 116.834 35.955 A 4.552 4.552 0 0 0 115.82 36.816 Q 114.797 38.107 114.706 40.857 A 16.654 16.654 0 0 0 114.697 41.406 L 114.697 59.717 Q 114.697 60.254 114.795 61.987 Q 114.879 63.483 114.891 64.124 A 10.233 10.233 0 0 1 114.893 64.307 L 115.088 68.115 Q 115.088 70.947 114.527 71.935 A 1.54 1.54 0 0 1 114.404 72.119 Q 113.858 72.939 111.44 72.994 A 15.71 15.71 0 0 1 111.084 72.998 Z M 192.429 39.154 A 237.869 237.869 0 0 0 192.383 43.994 A 115.567 115.567 0 0 0 192.558 50.574 Q 192.987 58.068 194.464 62.875 A 19.341 19.341 0 0 0 196.411 67.358 A 13.081 13.081 0 0 0 204.768 73.303 A 21.508 21.508 0 0 0 209.912 73.877 A 29.235 29.235 0 0 0 210.961 73.859 Q 216.129 73.673 219.702 71.631 A 14.208 14.208 0 0 0 223.575 68.358 A 18.6 18.6 0 0 0 225.977 64.6 A 12.489 12.489 0 0 0 226.779 62.629 Q 227.109 61.592 227.353 60.343 A 31.707 31.707 0 0 0 227.734 57.813 A 39.348 39.348 0 0 0 227.857 56.501 Q 228.124 53.096 228.196 46.579 A 477.97 477.97 0 0 0 228.223 41.309 A 90.548 90.548 0 0 0 228.094 36.339 Q 227.499 25.548 224.17 20.654 Q 221.289 16.419 215.643 15.195 A 23.842 23.842 0 0 0 210.596 14.697 A 31.237 31.237 0 0 0 208.78 14.749 Q 204.651 14.989 201.734 16.357 A 13.423 13.423 0 0 0 198.362 18.628 A 16.841 16.841 0 0 0 195.703 21.777 Q 194.471 23.464 193.734 26.075 A 24.965 24.965 0 0 0 193.115 28.955 Q 192.566 32.434 192.429 39.154 Z M 128.027 68.604 L 128.027 66.602 L 128.027 25 L 127.979 22.9 L 127.93 20.508 A 10.857 10.857 0 0 1 127.99 19.314 Q 128.126 18.089 128.568 17.387 A 2.184 2.184 0 0 1 128.931 16.943 A 2.403 2.403 0 0 1 129.675 16.498 Q 130.821 16.036 133.095 16.017 A 23.682 23.682 0 0 1 133.301 16.016 L 135.205 16.016 L 137.207 15.967 L 139.307 15.918 A 18.724 18.724 0 0 1 140.394 15.947 Q 142.063 16.045 142.755 16.468 A 1.536 1.536 0 0 1 142.847 16.528 A 1.746 1.746 0 0 1 143.423 17.265 Q 143.684 17.854 143.7 18.772 A 6.981 6.981 0 0 1 143.701 18.897 L 143.701 22.51 L 143.701 68.311 A 21.453 21.453 0 0 1 143.667 69.567 Q 143.561 71.37 143.12 72.089 A 1.396 1.396 0 0 1 142.993 72.266 A 1.784 1.784 0 0 1 142.367 72.717 Q 141.767 72.992 140.784 73.067 A 10.421 10.421 0 0 1 139.99 73.096 L 137.598 73.047 L 135.693 72.998 L 132.617 73.047 L 130.811 73.096 A 5.381 5.381 0 0 1 130.069 73.048 Q 129.053 72.907 128.613 72.339 A 1.73 1.73 0 0 1 128.364 71.842 Q 128.084 71.026 128.037 69.328 A 26.151 26.151 0 0 1 128.027 68.604 Z M 206.787 35.01 L 206.787 53.809 Q 206.787 55.225 207.117 56.214 A 3.845 3.845 0 0 0 207.617 57.227 A 2.697 2.697 0 0 0 209.514 58.357 A 4.106 4.106 0 0 0 210.108 58.399 A 5.651 5.651 0 0 0 211.168 58.306 Q 211.768 58.191 212.225 57.934 A 2.584 2.584 0 0 0 213.037 57.227 A 3.459 3.459 0 0 0 213.519 56.289 Q 213.844 55.362 213.903 53.961 A 15.31 15.31 0 0 0 213.916 53.32 L 213.916 36.719 Q 213.916 32.948 213.158 31.602 A 2.322 2.322 0 0 0 213.062 31.445 A 2.638 2.638 0 0 0 211.725 30.437 Q 211.006 30.176 210.01 30.176 A 3.331 3.331 0 0 0 208.893 30.355 A 2.801 2.801 0 0 0 207.568 31.348 A 4.476 4.476 0 0 0 207.094 32.451 Q 206.792 33.493 206.787 34.963 A 14.587 14.587 0 0 0 206.787 35.01 Z M 165.332 35.889 L 165.332 50.781 Q 165.332 55.108 165.958 56.677 A 2.777 2.777 0 0 0 166.113 57.007 A 2.564 2.564 0 0 0 167.707 58.234 Q 168.273 58.399 168.994 58.399 A 4.375 4.375 0 0 0 169.975 58.296 Q 170.623 58.147 171.078 57.78 A 2.437 2.437 0 0 0 171.655 57.105 A 3.601 3.601 0 0 0 171.986 56.288 Q 172.412 54.81 172.412 51.807 L 172.412 37.598 Q 172.412 33.33 171.798 31.738 A 3.027 3.027 0 0 0 171.655 31.421 A 2.565 2.565 0 0 0 169.82 30.071 A 4.434 4.434 0 0 0 168.897 29.981 A 3.271 3.271 0 0 0 167.676 30.199 Q 166.793 30.551 166.235 31.47 Q 165.332 32.959 165.332 35.889 Z M 137.988 12.695 L 135.303 12.695 Q 130.274 12.695 129.15 11.694 A 2.006 2.006 0 0 1 128.674 10.963 Q 128.145 9.703 128.049 6.799 A 41.631 41.631 0 0 1 128.027 5.42 A 23.899 23.899 0 0 1 128.066 4.005 Q 128.204 1.696 128.833 0.952 Q 129.491 0.175 131.336 0.032 A 11.577 11.577 0 0 1 132.227 0 L 134.082 0.049 L 136.328 0.098 L 137.94 0.049 L 139.502 0 A 13.032 13.032 0 0 1 140.623 0.044 Q 142.451 0.203 143.042 0.928 A 1.95 1.95 0 0 1 143.346 1.524 Q 143.708 2.577 143.781 4.939 A 41.317 41.317 0 0 1 143.799 6.201 A 27.884 27.884 0 0 1 143.755 7.839 Q 143.613 10.235 143.019 11.252 A 2.209 2.209 0 0 1 142.871 11.475 A 2.12 2.12 0 0 1 142.085 12.077 Q 140.925 12.637 138.507 12.69 A 23.701 23.701 0 0 1 137.988 12.695 Z M 70.899 49.414 L 70.899 55.811 A 10.901 10.901 0 0 0 70.984 57.227 Q 71.173 58.664 71.777 59.57 Q 72.705 60.791 74.512 60.791 A 5.124 5.124 0 0 0 75.522 60.698 Q 76.11 60.58 76.553 60.31 A 2.477 2.477 0 0 0 77.295 59.619 Q 77.913 58.615 78.042 56.356 A 22.482 22.482 0 0 0 78.076 55.078 L 78.076 49.121 A 16.823 16.823 0 0 0 78.029 47.81 Q 77.887 46.002 77.319 45.142 A 2.43 2.43 0 0 0 75.851 44.118 Q 75.382 43.994 74.805 43.994 A 4.22 4.22 0 0 0 73.577 44.163 A 3.173 3.173 0 0 0 71.9 45.361 Q 70.899 46.729 70.899 49.414 Z M 280.615 49.414 L 280.615 55.811 A 10.901 10.901 0 0 0 280.701 57.227 Q 280.89 58.664 281.494 59.57 Q 282.422 60.791 284.229 60.791 A 5.124 5.124 0 0 0 285.238 60.698 Q 285.827 60.58 286.27 60.31 A 2.477 2.477 0 0 0 287.012 59.619 Q 287.63 58.615 287.759 56.356 A 22.482 22.482 0 0 0 287.793 55.078 L 287.793 49.121 A 16.823 16.823 0 0 0 287.746 47.81 Q 287.604 46.002 287.036 45.142 A 2.43 2.43 0 0 0 285.567 44.118 Q 285.098 43.994 284.522 43.994 A 4.22 4.22 0 0 0 283.294 44.163 A 3.173 3.173 0 0 0 281.616 45.361 Q 280.615 46.729 280.615 49.414 Z" vector-effect="non-scaling-stroke"/></g></svg>