<svg width="271.978" height="73.609" viewBox="0 0 271.978 73.609" xmlns="http://www.w3.org/2000/svg"><g id="svgGroup" stroke-linecap="round" fill-rule="evenodd" font-size="9pt" stroke="#ffffff" stroke-width="0" fill="#ffffff" style="stroke:#ffffff;stroke-width:0;fill:#ffffff"><path d="M 0.088 60.557 L 0.088 57.524 L 0.088 18.457 L 0.176 14.678 L 0.264 9.8 L 0.132 6.987 L 0 4.307 A 6.814 6.814 0 0 1 0.056 3.396 Q 0.225 2.148 0.901 1.604 A 2.282 2.282 0 0 1 1.544 1.258 Q 2.564 0.881 4.55 0.879 A 20.965 20.965 0 0 1 4.57 0.879 L 12.92 0.879 A 9.045 9.045 0 0 1 14.169 0.959 Q 15.592 1.158 16.341 1.854 A 2.473 2.473 0 0 1 16.524 2.044 Q 17.291 2.927 17.931 5.141 A 27.652 27.652 0 0 1 18.325 6.68 L 22.676 25.752 L 23.731 25.752 L 28.96 4.219 Q 29.406 2.557 30.113 1.774 A 2.691 2.691 0 0 1 30.234 1.648 A 2.577 2.577 0 0 1 31.351 1.021 Q 31.757 0.906 32.242 0.884 A 5.172 5.172 0 0 1 32.476 0.879 L 42.363 0.879 A 6.56 6.56 0 0 1 43.382 0.952 Q 43.897 1.033 44.299 1.205 A 2.248 2.248 0 0 1 45.286 1.978 A 2.758 2.758 0 0 1 45.622 2.683 Q 46.013 3.852 46.051 6.17 A 31.277 31.277 0 0 1 46.055 6.68 L 45.879 14.107 L 45.703 24.653 L 45.791 35.859 L 45.879 52.119 A 61.51 61.51 0 0 0 45.884 52.884 Q 45.901 54.19 45.967 56.448 Q 46.055 59.458 46.055 59.678 L 46.055 60.469 A 25.137 25.137 0 0 1 46.022 61.801 Q 45.919 63.74 45.487 64.574 A 2.117 2.117 0 0 1 45.462 64.622 A 1.968 1.968 0 0 1 44.178 65.593 Q 43.818 65.688 43.378 65.697 A 4.524 4.524 0 0 1 43.286 65.698 L 35.156 65.698 Q 33.399 65.698 32.673 64.666 Q 31.948 63.633 31.948 61.04 L 31.948 43.726 L 31.816 37.046 L 31.553 31.333 L 30.234 31.333 A 186.053 186.053 0 0 1 29.324 35.526 Q 28.319 39.894 27.376 42.81 A 37.971 37.971 0 0 1 26.741 44.627 A 21.842 21.842 0 0 1 26.124 46.098 Q 24.788 48.955 23.467 48.955 A 1.592 1.592 0 0 1 22.415 48.253 Q 20.491 45.995 17.063 36.48 A 248.008 248.008 0 0 1 15.425 31.773 L 15.293 31.333 L 14.194 31.333 L 14.194 34.937 L 14.194 38.716 L 14.194 57.612 L 14.107 59.985 L 14.019 62.622 A 7.907 7.907 0 0 1 13.979 63.451 Q 13.836 64.798 13.184 65.193 A 2.13 2.13 0 0 1 12.669 65.402 Q 11.628 65.698 9.273 65.698 L 3.384 65.698 A 3.445 3.445 0 0 1 2.348 65.551 A 2.602 2.602 0 0 1 0.901 64.424 A 4.234 4.234 0 0 1 0.438 63.392 Q 0.123 62.371 0.091 60.89 A 15.728 15.728 0 0 1 0.088 60.557 Z M 70.444 62.358 L 69.829 62.358 Q 69.126 64.336 67.324 65.479 A 7.25 7.25 0 0 1 65.221 66.267 Q 64.189 66.489 62.974 66.489 A 9.318 9.318 0 0 1 55.682 63.071 A 14.378 14.378 0 0 1 54.47 61.458 A 18.661 18.661 0 0 1 52.12 56.031 Q 51.485 53.64 51.287 50.818 A 37.835 37.835 0 0 1 51.196 48.164 A 34.664 34.664 0 0 1 51.607 42.667 Q 52.39 37.797 54.668 34.365 A 14.033 14.033 0 0 1 56.515 32.128 A 10.968 10.968 0 0 1 58.645 30.498 A 9.773 9.773 0 0 1 63.198 29.191 A 11.683 11.683 0 0 1 63.721 29.18 Q 64.964 29.18 66.498 29.6 A 16.383 16.383 0 0 1 67.017 29.751 L 69.39 30.322 Q 69.802 30.322 70.064 30.179 A 0.791 0.791 0 0 0 70.357 29.905 A 1.373 1.373 0 0 0 70.504 29.572 Q 70.62 29.192 70.62 28.608 Q 70.62 26.675 69.148 25.488 A 5.054 5.054 0 0 0 67.292 24.563 Q 66.345 24.302 65.171 24.302 A 14.375 14.375 0 0 0 62.678 24.531 A 19.726 19.726 0 0 0 60.293 25.115 A 77.023 77.023 0 0 1 59.378 25.391 Q 57.658 25.898 57.18 25.926 A 0.884 0.884 0 0 1 57.129 25.928 A 2.721 2.721 0 0 1 56.403 25.836 A 1.989 1.989 0 0 1 55.459 25.269 Q 54.976 24.565 54.976 22.94 L 54.976 18.457 A 15.206 15.206 0 0 1 54.99 17.762 Q 55.039 16.707 55.247 16.245 A 1.168 1.168 0 0 1 55.283 16.172 A 1.795 1.795 0 0 1 55.67 15.69 Q 55.969 15.421 56.426 15.205 Q 57.857 14.581 60.5 14.049 A 50.044 50.044 0 0 1 61.589 13.843 Q 65.039 13.228 68.115 13.228 Q 74.925 13.228 78.411 15.207 A 8.268 8.268 0 0 1 79.783 16.172 A 8.384 8.384 0 0 1 81.959 19.304 Q 83.145 22.133 83.145 26.543 L 83.145 30.586 L 83.145 61.04 L 83.189 61.963 L 83.233 62.71 A 10.208 10.208 0 0 1 83.206 63.473 Q 83.112 64.72 82.683 65.149 Q 82.134 65.698 79.19 65.698 L 72.993 65.698 A 10.992 10.992 0 0 1 72.335 65.68 Q 71.346 65.621 70.964 65.365 A 0.663 0.663 0 0 1 70.84 65.259 A 0.988 0.988 0 0 1 70.751 65.086 Q 70.673 64.896 70.611 64.593 A 6.37 6.37 0 0 1 70.554 64.27 A 7.918 7.918 0 0 1 70.496 63.772 Q 70.446 63.193 70.444 62.411 A 25.266 25.266 0 0 1 70.444 62.358 Z M 259.19 62.358 L 258.574 62.358 Q 257.871 64.336 256.069 65.479 A 7.25 7.25 0 0 1 253.966 66.267 Q 252.934 66.489 251.719 66.489 A 9.318 9.318 0 0 1 244.427 63.071 A 14.378 14.378 0 0 1 243.215 61.458 A 18.661 18.661 0 0 1 240.865 56.031 Q 240.23 53.64 240.032 50.818 A 37.835 37.835 0 0 1 239.941 48.164 A 34.664 34.664 0 0 1 240.352 42.667 Q 241.135 37.797 243.413 34.365 A 14.033 14.033 0 0 1 245.26 32.128 A 10.968 10.968 0 0 1 247.39 30.498 A 9.773 9.773 0 0 1 251.943 29.191 A 11.683 11.683 0 0 1 252.466 29.18 Q 253.709 29.18 255.243 29.6 A 16.383 16.383 0 0 1 255.762 29.751 L 258.135 30.322 Q 258.548 30.322 258.809 30.179 A 0.791 0.791 0 0 0 259.102 29.905 A 1.373 1.373 0 0 0 259.249 29.572 Q 259.365 29.192 259.365 28.608 Q 259.365 26.675 257.893 25.488 A 5.054 5.054 0 0 0 256.038 24.563 Q 255.09 24.302 253.916 24.302 A 14.375 14.375 0 0 0 251.423 24.531 A 19.726 19.726 0 0 0 249.038 25.115 A 77.023 77.023 0 0 1 248.124 25.391 Q 246.403 25.898 245.925 25.926 A 0.884 0.884 0 0 1 245.874 25.928 A 2.721 2.721 0 0 1 245.148 25.836 A 1.989 1.989 0 0 1 244.204 25.269 Q 243.721 24.565 243.721 22.94 L 243.721 18.457 A 15.206 15.206 0 0 1 243.736 17.762 Q 243.784 16.707 243.992 16.245 A 1.168 1.168 0 0 1 244.028 16.172 A 1.795 1.795 0 0 1 244.415 15.69 Q 244.714 15.421 245.171 15.205 Q 246.602 14.581 249.245 14.049 A 50.044 50.044 0 0 1 250.335 13.843 Q 253.784 13.228 256.86 13.228 Q 263.67 13.228 267.156 15.207 A 8.268 8.268 0 0 1 268.528 16.172 A 8.384 8.384 0 0 1 270.705 19.304 Q 271.89 22.133 271.89 26.543 L 271.89 30.586 L 271.89 61.04 L 271.934 61.963 L 271.978 62.71 A 10.208 10.208 0 0 1 271.951 63.473 Q 271.857 64.72 271.428 65.149 Q 270.879 65.698 267.935 65.698 L 261.738 65.698 A 10.992 10.992 0 0 1 261.08 65.68 Q 260.091 65.621 259.709 65.365 A 0.663 0.663 0 0 1 259.585 65.259 A 0.988 0.988 0 0 1 259.496 65.086 Q 259.418 64.896 259.356 64.593 A 6.37 6.37 0 0 1 259.299 64.27 A 7.918 7.918 0 0 1 259.241 63.772 Q 259.191 63.193 259.19 62.411 A 25.266 25.266 0 0 1 259.19 62.358 Z M 136.187 69.39 L 136.187 19.336 L 136.143 18.545 L 136.099 17.271 Q 136.099 15.711 136.614 14.98 A 1.562 1.562 0 0 1 136.89 14.678 Q 137.681 14.019 140.054 14.019 L 145.459 14.019 A 9.916 9.916 0 0 1 146.24 14.047 Q 147.484 14.146 147.94 14.588 A 0.994 0.994 0 0 1 147.964 14.612 A 1.679 1.679 0 0 1 148.246 15.031 Q 148.589 15.722 148.781 17.137 A 17.05 17.05 0 0 1 148.799 17.271 A 15.002 15.002 0 0 1 150.378 15.792 Q 151.42 14.956 152.49 14.458 A 8.948 8.948 0 0 1 154.402 13.799 Q 155.391 13.579 156.621 13.579 A 8.812 8.812 0 0 1 161.37 14.85 Q 163.85 16.391 165.366 19.797 Q 167.63 24.881 168.043 35.236 A 122.841 122.841 0 0 1 168.135 40.122 A 100.877 100.877 0 0 1 167.929 46.817 Q 167.492 53.352 166.132 57.561 A 20.041 20.041 0 0 1 165.212 59.92 Q 162.326 66.062 156.116 66.137 A 12.755 12.755 0 0 1 155.962 66.138 Q 153.941 66.138 152.271 65.545 Q 150.601 64.951 149.326 63.809 L 149.326 69.038 A 21.559 21.559 0 0 1 149.296 70.222 Q 149.179 72.345 148.601 72.905 A 1.781 1.781 0 0 1 148.039 73.257 Q 147.471 73.493 146.541 73.571 A 12.029 12.029 0 0 1 145.547 73.608 L 139.878 73.608 Q 137.637 73.608 136.874 73.215 A 1.054 1.054 0 0 1 136.67 73.081 Q 136.28 72.62 136.204 70.495 A 31.473 31.473 0 0 1 136.187 69.39 Z M 210.059 63.018 L 210.059 62.358 L 209.883 56.514 L 209.883 55.151 A 14.496 14.496 0 0 1 209.916 54.135 Q 209.985 53.151 210.201 52.533 A 2.477 2.477 0 0 1 210.41 52.075 A 1.728 1.728 0 0 1 211.554 51.266 A 2.908 2.908 0 0 1 212.212 51.196 L 214.321 51.724 A 16.719 16.719 0 0 0 215.808 52.046 Q 216.536 52.167 217.19 52.197 A 9.234 9.234 0 0 0 217.617 52.207 A 10.491 10.491 0 0 0 218.675 52.158 Q 220.133 52.009 220.825 51.416 Q 221.627 50.729 221.732 49.378 A 5.452 5.452 0 0 0 221.748 48.955 A 3.662 3.662 0 0 0 221.369 47.414 Q 220.58 45.717 218.145 43.638 L 216.475 42.1 Q 213.179 39.024 211.575 35.596 A 17.222 17.222 0 0 1 209.996 29.093 A 20.224 20.224 0 0 1 209.971 28.081 A 18.62 18.62 0 0 1 210.533 23.382 A 13.492 13.492 0 0 1 213.97 17.227 A 13.416 13.416 0 0 1 222.345 13.25 A 18.425 18.425 0 0 1 224.385 13.14 A 67.14 67.14 0 0 1 226.576 13.173 Q 229.987 13.285 231.523 13.773 A 3.498 3.498 0 0 1 232.251 14.085 A 2.978 2.978 0 0 1 233.53 15.683 Q 233.729 16.227 233.797 16.911 A 7.603 7.603 0 0 1 233.833 17.666 L 233.921 22.852 A 7.774 7.774 0 0 1 233.856 23.895 Q 233.786 24.409 233.641 24.83 A 3.143 3.143 0 0 1 233.218 25.664 A 2.252 2.252 0 0 1 231.877 26.537 A 3.637 3.637 0 0 1 231.021 26.631 A 2.338 2.338 0 0 1 230.917 26.628 Q 230.755 26.621 230.473 26.594 A 20.752 20.752 0 0 1 230.405 26.587 A 6.422 6.422 0 0 1 229.996 26.532 Q 229.716 26.485 229.395 26.411 L 227.417 26.191 A 4.2 4.2 0 0 0 226.41 26.306 A 2.95 2.95 0 0 0 225.088 27.004 A 2.693 2.693 0 0 0 224.24 28.688 A 3.787 3.787 0 0 0 224.209 29.18 A 2.136 2.136 0 0 0 224.397 29.975 Q 225.012 31.464 227.637 34.19 L 230.317 37.09 A 25.76 25.76 0 0 1 232.694 40.08 A 19.145 19.145 0 0 1 234.558 43.528 A 17.978 17.978 0 0 1 235.899 50.405 A 22.138 22.138 0 0 1 235.398 55.262 Q 234.658 58.553 232.825 60.972 A 13.22 13.22 0 0 1 231.658 62.315 A 13.885 13.885 0 0 1 225.126 65.953 Q 222.925 66.519 220.315 66.572 A 26.784 26.784 0 0 1 219.771 66.577 A 48.285 48.285 0 0 1 217.381 66.522 Q 215.054 66.406 213.532 66.047 A 8.515 8.515 0 0 1 212.388 65.698 A 5.13 5.13 0 0 1 211.382 65.242 Q 210.824 64.905 210.501 64.456 A 2.398 2.398 0 0 1 210.059 63.018 Z M 99.976 65.698 L 92.769 65.698 A 6.333 6.333 0 0 1 91.831 65.634 Q 90.706 65.465 90.153 64.851 A 1.881 1.881 0 0 1 90.088 64.775 A 2.645 2.645 0 0 1 89.808 64.137 Q 89.488 63.098 89.473 61.097 A 26.453 26.453 0 0 1 89.473 60.908 L 89.473 24.565 L 89.385 22.412 L 89.297 19.336 Q 89.297 15.864 90.33 14.898 A 2.461 2.461 0 0 1 91.094 14.436 Q 92.284 13.952 94.663 13.932 A 24.743 24.743 0 0 1 94.878 13.931 L 99.273 13.931 Q 101.975 13.931 102.121 18.297 A 15.353 15.353 0 0 1 102.129 18.809 L 102.129 19.248 L 102.788 19.336 A 20.165 20.165 0 0 1 103.493 17.34 Q 103.899 16.366 104.372 15.58 A 9.618 9.618 0 0 1 104.985 14.678 A 7.463 7.463 0 0 1 105.639 13.928 Q 106.611 12.964 107.534 12.964 A 3.239 3.239 0 0 1 108.382 13.068 A 2.128 2.128 0 0 1 109.688 14.041 A 3.081 3.081 0 0 1 109.991 14.747 Q 110.23 15.529 110.308 16.776 A 21.295 21.295 0 0 1 110.347 18.106 L 110.347 27.73 Q 110.347 29.244 109.857 30.141 A 2.38 2.38 0 0 1 108.15 31.377 L 107.886 31.421 A 9.163 9.163 0 0 0 106.453 31.758 Q 105.716 32.001 105.15 32.359 A 4.097 4.097 0 0 0 104.238 33.135 Q 103.317 34.296 103.236 36.772 A 14.989 14.989 0 0 0 103.228 37.266 L 103.228 53.745 A 10.133 10.133 0 0 0 103.232 54.008 Q 103.243 54.438 103.286 55.253 A 147.436 147.436 0 0 0 103.316 55.789 A 131.149 131.149 0 0 1 103.35 56.422 Q 103.403 57.464 103.403 57.876 L 103.579 61.304 A 20.102 20.102 0 0 1 103.55 62.438 Q 103.457 64.067 103.074 64.741 A 1.386 1.386 0 0 1 102.964 64.907 A 1.221 1.221 0 0 1 102.489 65.303 Q 101.789 65.661 100.296 65.695 A 14.138 14.138 0 0 1 99.976 65.698 Z M 173.186 35.239 A 214.082 214.082 0 0 0 173.145 39.595 A 104.01 104.01 0 0 0 173.302 45.517 Q 173.901 55.98 176.77 60.623 A 11.773 11.773 0 0 0 184.291 65.972 A 19.357 19.357 0 0 0 188.921 66.489 A 26.311 26.311 0 0 0 189.865 66.473 Q 191.878 66.4 193.622 66.015 A 14.558 14.558 0 0 0 197.732 64.468 A 12.787 12.787 0 0 0 201.217 61.522 A 16.74 16.74 0 0 0 203.379 58.14 A 11.24 11.24 0 0 0 204.101 56.367 Q 204.677 54.556 204.961 52.031 Q 205.297 49.037 205.376 41.921 A 430.17 430.17 0 0 0 205.4 37.178 Q 205.4 27.877 203.597 22.466 A 15.691 15.691 0 0 0 201.753 18.589 Q 199.16 14.777 194.079 13.676 A 21.458 21.458 0 0 0 189.536 13.228 A 28.113 28.113 0 0 0 187.902 13.274 Q 186.158 13.375 184.655 13.7 A 14.471 14.471 0 0 0 181.56 14.722 A 12.081 12.081 0 0 0 178.526 16.765 A 15.156 15.156 0 0 0 176.133 19.6 Q 175.024 21.117 174.361 23.468 A 22.468 22.468 0 0 0 173.804 26.06 Q 173.309 29.191 173.186 35.239 Z M 115.225 61.743 L 115.225 59.941 L 115.225 22.5 L 115.181 20.61 L 115.137 18.457 A 9.771 9.771 0 0 1 115.191 17.382 Q 115.359 15.879 116.038 15.249 A 2.162 2.162 0 0 1 116.707 14.848 Q 117.739 14.433 119.786 14.415 A 21.317 21.317 0 0 1 119.971 14.414 L 121.685 14.414 L 123.486 14.37 L 125.376 14.326 Q 127.793 14.326 128.562 14.876 Q 129.304 15.405 129.33 16.895 A 6.283 6.283 0 0 1 129.331 17.007 L 129.331 20.259 L 129.331 61.48 A 19.307 19.307 0 0 1 129.301 62.61 Q 129.205 64.233 128.808 64.88 A 1.256 1.256 0 0 1 128.694 65.039 A 1.606 1.606 0 0 1 128.131 65.445 Q 127.387 65.786 125.991 65.786 L 123.838 65.742 L 122.124 65.698 L 119.356 65.742 L 117.73 65.786 Q 116.431 65.786 115.873 65.24 A 1.311 1.311 0 0 1 115.752 65.105 Q 115.292 64.511 115.233 62.395 A 23.536 23.536 0 0 1 115.225 61.743 Z M 186.108 31.509 L 186.108 48.428 A 8.764 8.764 0 0 0 186.178 49.57 Q 186.252 50.133 186.406 50.593 A 3.461 3.461 0 0 0 186.856 51.504 A 2.428 2.428 0 0 0 188.563 52.522 A 3.695 3.695 0 0 0 189.097 52.559 Q 190.942 52.559 191.733 51.504 A 3.113 3.113 0 0 0 192.167 50.66 Q 192.46 49.826 192.513 48.565 A 13.78 13.78 0 0 0 192.525 47.988 L 192.525 33.047 A 26.741 26.741 0 0 0 192.488 31.588 Q 192.356 29.193 191.755 28.301 Q 190.986 27.158 189.009 27.158 A 2.998 2.998 0 0 0 188.004 27.319 A 2.521 2.521 0 0 0 186.812 28.213 A 4.028 4.028 0 0 0 186.385 29.206 Q 186.113 30.144 186.109 31.467 A 13.074 13.074 0 0 0 186.108 31.509 Z M 148.799 32.3 L 148.799 45.703 Q 148.799 50.054 149.502 51.306 Q 150.16 52.478 151.856 52.553 A 5.367 5.367 0 0 0 152.095 52.559 Q 153.809 52.559 154.49 51.394 A 3.241 3.241 0 0 0 154.788 50.659 Q 155.134 49.457 155.167 47.136 A 35.387 35.387 0 0 0 155.171 46.626 L 155.171 33.838 Q 155.171 29.997 154.618 28.565 A 2.724 2.724 0 0 0 154.49 28.279 A 2.308 2.308 0 0 0 152.838 27.064 A 3.99 3.99 0 0 0 152.007 26.982 A 2.944 2.944 0 0 0 150.908 27.179 Q 150.114 27.496 149.612 28.323 A 4.638 4.638 0 0 0 149.141 29.425 Q 148.799 30.59 148.799 32.3 Z M 124.19 11.426 L 121.773 11.426 A 36.225 36.225 0 0 1 120.199 11.394 Q 117.745 11.287 116.707 10.817 A 1.854 1.854 0 0 1 116.235 10.525 A 1.805 1.805 0 0 1 115.807 9.867 Q 115.225 8.479 115.225 4.878 Q 115.225 1.714 115.95 0.857 Q 116.542 0.158 118.202 0.029 A 10.42 10.42 0 0 1 119.004 0 L 120.674 0.044 L 122.695 0.088 L 124.146 0.044 L 125.552 0 Q 128.057 0 128.738 0.835 A 1.755 1.755 0 0 1 129.012 1.371 Q 129.338 2.319 129.403 4.445 A 37.185 37.185 0 0 1 129.419 5.581 Q 129.419 8.925 128.717 10.126 A 1.988 1.988 0 0 1 128.584 10.327 A 1.908 1.908 0 0 1 127.877 10.869 Q 126.724 11.426 124.19 11.426 Z M 63.809 44.473 L 63.809 50.23 A 9.811 9.811 0 0 0 63.886 51.504 Q 63.97 52.141 64.144 52.662 A 3.985 3.985 0 0 0 64.6 53.613 A 2.704 2.704 0 0 0 66.364 54.656 A 4.105 4.105 0 0 0 67.061 54.712 Q 68.818 54.712 69.566 53.657 A 3.4 3.4 0 0 0 69.905 52.872 Q 70.269 51.687 70.269 49.57 L 70.269 44.209 Q 70.269 42.209 69.849 41.143 A 2.784 2.784 0 0 0 69.587 40.628 A 2.187 2.187 0 0 0 68.266 39.706 Q 67.883 39.605 67.421 39.596 A 4.722 4.722 0 0 0 67.324 39.595 A 3.798 3.798 0 0 0 66.22 39.747 A 2.856 2.856 0 0 0 64.71 40.825 A 4.012 4.012 0 0 0 64.143 41.968 Q 63.966 42.516 63.882 43.188 A 10.475 10.475 0 0 0 63.809 44.473 Z M 252.554 44.473 L 252.554 50.23 A 9.811 9.811 0 0 0 252.631 51.504 Q 252.715 52.141 252.889 52.662 A 3.985 3.985 0 0 0 253.345 53.613 A 2.704 2.704 0 0 0 255.11 54.656 A 4.105 4.105 0 0 0 255.806 54.712 Q 257.564 54.712 258.311 53.657 A 3.4 3.4 0 0 0 258.651 52.872 Q 259.014 51.687 259.014 49.57 L 259.014 44.209 Q 259.014 42.209 258.594 41.143 A 2.784 2.784 0 0 0 258.333 40.628 A 2.187 2.187 0 0 0 257.011 39.706 Q 256.628 39.605 256.166 39.596 A 4.722 4.722 0 0 0 256.069 39.595 A 3.798 3.798 0 0 0 254.965 39.747 A 2.856 2.856 0 0 0 253.455 40.825 A 4.012 4.012 0 0 0 252.888 41.968 Q 252.711 42.516 252.627 43.188 A 10.475 10.475 0 0 0 252.554 44.473 Z" vector-effect="non-scaling-stroke"/></g></svg>